<?xml version="1.0" standalone="no"?>
<!DOCTYPE svg PUBLIC "-//W3C//DTD SVG 20010904//EN"
 "http://www.w3.org/TR/2001/REC-SVG-20010904/DTD/svg10.dtd">
<svg version="1.0" xmlns="http://www.w3.org/2000/svg"
 width="200.000000pt" height="200.000000pt" viewBox="0 0 200.000000 200.000000"
 preserveAspectRatio="xMidYMid meet">

<g transform="translate(0.000000,200.000000) scale(0.100000,-0.100000)"
fill="#000000" stroke="none">
<path d="M825 1795 c-290 -64 -530 -267 -635 -538 -87 -222 -75 -490 29 -701
77 -153 247 -296 358 -300 56 -2 54 23 -9 97 -152 174 -239 315 -275 440 -22
79 -25 102 -21 200 9 196 72 340 208 478 209 211 515 280 791 179 110 -40 192
-92 275 -175 201 -201 269 -500 174 -767 -16 -45 -27 -84 -25 -87 3 -2 8 5 12
15 4 10 13 24 20 29 7 6 19 28 27 50 10 28 15 33 15 18 1 -25 -36 -130 -53
-152 -8 -11 -8 -13 2 -7 18 11 15 -2 -9 -36 -12 -16 -19 -31 -17 -34 3 -2 16
13 31 34 48 68 87 150 113 239 23 75 27 107 27 213 0 113 -3 134 -31 220 -45
136 -109 238 -216 346 -129 129 -264 203 -438 239 -85 18 -271 18 -353 0z"/>
<path d="M1000 1490 c0 -5 5 -10 10 -10 6 0 10 5 10 10 0 6 -4 10 -10 10 -5 0
-10 -4 -10 -10z"/>
<path d="M1000 1435 c-6 -16 -13 -40 -13 -52 -1 -13 -8 -23 -16 -23 -11 0 -11
-3 -1 -15 10 -13 9 -15 -8 -15 -12 0 -24 -5 -28 -12 -4 -7 -3 -8 4 -4 7 4 12
5 12 2 0 -3 -10 -10 -21 -17 -12 -6 -19 -7 -16 -2 4 6 -8 5 -28 -1 -43 -13
-39 -17 22 -20 27 -1 54 -5 60 -9 6 -4 14 -3 17 1 3 5 15 8 28 6 13 -1 26 -3
31 -3 4 -1 7 -5 7 -10 0 -5 -34 -8 -75 -7 -41 2 -75 -1 -75 -6 0 -4 7 -8 15
-8 8 0 15 -4 15 -10 0 -6 34 -10 81 -10 74 0 84 2 105 25 24 26 23 60 -2 51
-7 -3 -16 0 -20 6 -4 7 -3 8 4 4 7 -4 12 -5 12 -2 0 3 -10 10 -21 17 -17 9
-20 8 -14 -2 5 -8 4 -10 -3 -5 -7 4 -12 16 -12 26 0 10 -3 20 -8 22 -4 2 -15
26 -23 53 l-16 50 -13 -30z m45 -95 c-3 -5 -18 -9 -33 -9 l-27 1 30 8 c17 4
31 8 33 9 2 0 0 -3 -3 -9z m71 -72 c3 -4 -4 -9 -15 -13 -21 -6 -41 0 -41 13 0
9 47 8 56 0z"/>
<path d="M1110 1206 c0 -2 7 -7 16 -10 8 -3 12 -2 9 4 -6 10 -25 14 -25 6z"/>
<path d="M905 1184 c-16 -6 -47 -19 -68 -28 -21 -9 -52 -15 -70 -13 -18 2 -24
2 -14 0 9 -2 17 -7 17 -11 0 -4 108 -7 240 -7 132 0 240 3 240 8 0 4 11 7 24
7 14 0 27 4 30 9 3 5 -12 5 -36 -1 -43 -9 -103 5 -92 23 3 5 -3 6 -12 2 -10
-3 -15 -2 -12 3 11 17 -203 24 -247 8z"/>
<path d="M918 1103 c57 -2 147 -2 200 0 53 1 7 3 -103 3 -110 0 -154 -2 -97
-3z"/>
<path d="M850 1079 c0 -15 37 -19 160 -19 123 0 160 4 160 19 0 3 -72 6 -160
6 -88 0 -160 -3 -160 -6z"/>
<path d="M900 950 l0 -100 115 0 115 0 0 100 0 100 -115 0 -115 0 0 -100z
m163 48 c12 -14 17 -38 17 -79 l0 -59 -65 0 -65 0 0 65 c0 53 4 69 21 86 25
25 64 19 92 -13z"/>
<path d="M987 954 c-4 -4 -7 -18 -7 -31 0 -19 5 -23 31 -23 27 0 30 3 27 28
-3 26 -34 43 -51 26z"/>
<path d="M1003 873 c9 -2 23 -2 30 0 6 3 -1 5 -18 5 -16 0 -22 -2 -12 -5z"/>
<path d="M943 823 c37 -2 97 -2 135 0 37 2 6 3 -68 3 -74 0 -105 -1 -67 -3z"/>
<path d="M810 795 c0 -13 29 -15 200 -15 171 0 200 2 200 15 0 13 -29 15 -200
15 -171 0 -200 -2 -200 -15z"/>
<path d="M880 750 c0 -19 7 -20 130 -20 123 0 130 1 130 20 0 19 -7 20 -130
20 -123 0 -130 -1 -130 -20z"/>
<path d="M945 658 c0 -29 -4 -79 -9 -110 l-8 -58 86 0 87 0 -8 38 c-4 20 -8
70 -8 110 l0 72 -70 0 -70 0 0 -52z"/>
<path d="M890 460 c0 -19 7 -20 125 -20 118 0 125 1 125 20 0 19 -7 20 -125
20 -118 0 -125 -1 -125 -20z"/>
<path d="M870 418 c0 -5 66 -8 147 -8 80 0 144 2 141 6 -9 8 -288 10 -288 2z"/>
<path d="M823 378 c-6 -7 -13 -23 -16 -35 l-5 -23 209 0 c225 0 226 0 199 51
-10 18 -23 19 -194 19 -135 0 -186 -3 -193 -12z"/>
<path d="M898 293 c68 -2 176 -2 240 0 64 1 9 3 -123 3 -132 0 -185 -2 -117
-3z"/>
<path d="M724 271 c-2 -2 -4 -22 -4 -43 l0 -38 290 0 290 0 0 40 c0 25 -5 40
-12 40 -264 4 -561 4 -564 1z"/>
</g>
</svg>
