<?xml version="1.0" standalone="no"?>
<!DOCTYPE svg PUBLIC "-//W3C//DTD SVG 20010904//EN"
 "http://www.w3.org/TR/2001/REC-SVG-20010904/DTD/svg10.dtd">
<svg version="1.0" xmlns="http://www.w3.org/2000/svg"
 width="900.000000pt" height="900.000000pt" viewBox="0 0 900.000000 900.000000"
 preserveAspectRatio="xMidYMid meet">

<g transform="translate(0.000000,900.000000) scale(0.100000,-0.100000)"
fill="#000000" stroke="none">
<path d="M4275 8490 c-193 -11 -219 -16 -239 -51 -16 -27 -49 -39 -60 -21 -3
5 -18 7 -34 4 -17 -2 -39 1 -49 7 -12 6 -24 6 -29 1 -13 -13 -99 -34 -244 -60
-67 -12 -102 -22 -157 -46 -36 -16 -52 -34 -29 -34 8 0 18 5 21 10 8 12 55 13
55 1 0 -10 -23 -16 -95 -27 -27 -4 -63 -17 -80 -28 -16 -12 -41 -27 -55 -33
-69 -32 -124 -54 -215 -88 -55 -20 -109 -41 -120 -45 -11 -5 -54 -21 -95 -35
-103 -37 -103 -38 -205 -86 -49 -24 -91 -47 -93 -51 -2 -5 -8 -8 -14 -8 -13 0
-74 -46 -135 -104 -56 -52 -116 -96 -132 -96 -31 0 -98 -50 -128 -97 -21 -33
-54 -66 -90 -90 -68 -44 -57 -36 -158 -117 -122 -97 -414 -404 -507 -531 -4
-5 -18 -23 -31 -40 -57 -73 -158 -218 -213 -305 -58 -91 -82 -134 -196 -350
-28 -52 -58 -106 -68 -120 -17 -25 -95 -177 -110 -215 -5 -11 -16 -54 -25 -95
-17 -80 -39 -135 -62 -162 -16 -18 -38 -105 -47 -193 -19 -169 -58 -294 -104
-332 -12 -10 -11 -15 6 -33 24 -26 33 -66 21 -97 -7 -18 -4 -31 12 -53 12 -15
18 -33 14 -39 -4 -7 -1 -18 5 -26 9 -11 5 -26 -19 -68 -29 -52 -43 -115 -21
-102 6 3 10 15 10 26 0 12 5 19 13 16 8 -2 12 -33 12 -105 1 -85 4 -105 19
-120 17 -16 18 -16 11 15 -14 69 -14 264 1 299 21 49 44 45 45 -8 1 -24 3 -35
6 -25 2 9 11 17 18 17 20 0 28 -58 23 -148 -4 -64 -2 -83 15 -116 24 -45 27
-65 33 -201 4 -100 14 -152 40 -212 10 -22 12 -46 6 -85 -6 -44 -4 -60 13 -93
l20 -40 3 80 c2 44 -2 116 -7 159 -17 126 -14 566 4 655 9 40 22 79 30 87 7 8
17 36 20 62 11 83 47 236 65 272 4 9 11 31 15 50 4 19 11 41 15 50 15 28 40
88 40 95 0 11 54 119 71 142 l17 23 6 -24 c3 -14 1 -37 -5 -53 -6 -15 -15 -37
-19 -48 -5 -11 -11 -39 -13 -62 -3 -25 -18 -63 -36 -90 -32 -47 -39 -73 -21
-73 6 0 10 7 10 16 0 9 5 12 11 8 7 -4 9 -23 5 -53 -11 -74 -27 -211 -33 -276
-7 -81 -7 -592 0 -680 14 -175 50 -404 86 -550 5 -22 16 -67 24 -100 8 -33 21
-80 30 -105 8 -25 22 -70 31 -100 9 -30 21 -64 25 -75 5 -11 21 -54 36 -95
117 -314 291 -609 544 -921 73 -92 244 -264 249 -251 8 24 64 12 113 -23 48
-34 69 -43 69 -28 0 4 -12 17 -27 29 -39 31 -24 38 25 12 84 -47 179 -107 192
-122 7 -9 16 -16 21 -16 8 0 130 -78 139 -89 4 -5 155 -102 254 -164 138 -85
167 -101 286 -163 94 -48 172 -84 183 -84 5 0 23 -6 40 -14 57 -26 151 -55
200 -62 26 -3 50 -10 53 -15 3 -5 16 -9 30 -9 13 0 24 -4 24 -10 0 -5 26 -10
58 -10 31 0 65 -7 75 -14 15 -12 13 -13 -20 -12 -28 1 -38 -3 -38 -14 0 -20
24 -23 210 -21 108 1 189 -4 250 -15 50 -9 123 -15 163 -14 46 1 81 -3 95 -12
25 -15 108 -15 247 1 209 24 317 34 365 35 44 1 50 -1 47 -18 -3 -16 1 -18 30
-12 18 4 58 11 88 15 50 8 141 30 198 47 12 3 22 2 22 -2 0 -14 -42 -31 -175
-70 -64 -19 -140 -57 -165 -81 -13 -14 -12 -15 15 -9 68 14 125 18 125 10 0
-10 -69 -34 -95 -34 -8 0 -15 -4 -15 -8 0 -5 30 -3 68 5 37 8 81 17 97 20 17
3 35 9 40 13 10 7 77 23 102 25 6 0 15 4 19 8 4 4 18 7 31 7 13 0 31 4 41 9
34 17 84 30 97 25 7 -3 16 -1 20 5 3 6 19 11 35 11 16 0 32 4 35 10 3 5 17 10
31 10 14 0 34 5 45 11 22 11 63 3 54 -11 -5 -8 -93 -52 -165 -82 -14 -6 -32
-13 -40 -17 -8 -4 -42 -15 -75 -25 -33 -11 -69 -22 -80 -27 -11 -4 -31 -10
-45 -13 -40 -9 -141 -34 -185 -46 -22 -7 -51 -13 -65 -15 -25 -3 -136 -39
-223 -73 l-48 -18 96 -14 c52 -7 95 -16 95 -20 0 -10 -47 -30 -69 -30 -20 0
-69 -35 -61 -43 3 -3 30 4 60 14 58 19 165 25 174 10 4 -5 -12 -25 -33 -43
-38 -33 -87 -50 -176 -63 -76 -12 -127 -30 -158 -58 l-32 -28 35 4 c19 3 91
16 160 30 156 31 204 37 220 27 16 -10 -31 -24 -134 -41 -75 -12 -167 -47
-180 -68 -7 -11 50 -5 97 9 15 5 34 7 41 4 8 -3 17 -1 21 5 3 6 19 11 35 11
16 0 31 4 34 9 5 8 40 16 103 25 13 1 26 6 30 9 3 4 19 7 34 7 15 0 30 4 33 9
3 5 20 11 38 15 151 26 171 32 202 62 44 43 81 55 176 56 71 0 90 4 122 24 21
13 40 24 43 24 3 0 22 10 43 23 34 22 144 52 167 46 13 -3 67 11 80 21 6 4 25
11 43 15 l32 7 -21 -37 c-12 -20 -19 -39 -15 -42 9 -10 37 19 32 34 -3 7 0 13
7 13 18 0 67 23 67 32 0 4 -4 10 -10 13 -19 12 -10 22 48 51 31 15 59 32 60
36 2 4 8 8 14 8 11 0 297 178 316 197 8 7 28 21 45 30 40 20 161 112 263 199
93 79 164 157 258 284 137 187 255 314 273 297 9 -10 -66 -125 -147 -226 -91
-114 -335 -354 -474 -466 -54 -44 -113 -94 -131 -111 -17 -17 -38 -35 -46 -40
-8 -5 -19 -18 -25 -29 -6 -11 -30 -33 -52 -48 -23 -16 -42 -33 -42 -38 0 -8
53 24 70 41 3 3 41 30 85 59 44 30 101 70 127 90 26 20 69 52 95 71 26 19 101
80 167 135 65 55 141 117 167 138 27 21 49 44 49 51 0 8 7 19 15 26 9 7 12 22
9 38 -4 19 1 34 16 50 24 26 40 28 40 6 0 -16 75 69 149 171 25 33 56 76 71
95 28 38 141 220 173 279 34 64 157 311 157 317 0 3 11 30 25 60 14 30 25 59
25 65 0 6 6 25 14 42 8 18 26 70 41 117 15 47 31 94 36 105 4 11 12 40 18 65
5 25 15 63 20 85 10 37 31 131 52 235 11 56 27 152 34 205 21 154 27 215 35
325 17 228 23 265 43 305 32 63 37 99 37 265 -1 334 -23 668 -52 780 -36 140
-95 245 -199 351 -41 42 -66 59 -93 64 -24 5 -50 21 -72 43 -37 38 -39 44 -24
72 8 15 5 23 -18 39 -15 12 -32 24 -37 28 -19 14 -89 53 -140 77 -138 66 -144
68 -209 61 -33 -4 -67 -12 -74 -18 -12 -9 -51 -2 -117 23 -11 4 -40 2 -65 -5
-25 -6 -50 -10 -57 -8 -6 2 -14 -1 -18 -6 -3 -6 -15 -11 -25 -11 -10 0 -20 -3
-22 -7 -1 -5 -25 -19 -53 -33 -27 -14 -78 -52 -113 -85 -57 -56 -62 -64 -56
-93 6 -31 -5 -60 -67 -172 -14 -25 -30 -63 -37 -85 -20 -69 -33 -227 -27 -310
11 -137 52 -255 90 -255 15 0 26 -55 24 -115 -1 -22 4 -52 11 -65 l14 -25 6
25 c3 14 13 26 22 28 16 3 22 -9 42 -100 3 -14 22 -47 41 -72 33 -44 35 -50
35 -126 0 -44 4 -88 9 -98 5 -9 15 -36 22 -59 18 -62 30 -53 28 21 -2 67 4 86
25 86 14 0 31 -64 22 -79 -9 -13 14 -295 25 -306 5 -5 9 -16 9 -25 0 -10 14
-36 31 -59 l30 -43 -16 -41 c-9 -23 -23 -49 -31 -58 -12 -14 -11 -17 11 -27
38 -18 37 -38 -12 -181 -19 -57 -46 -129 -60 -160 -14 -31 -32 -72 -41 -91 -8
-19 -23 -53 -33 -74 -23 -49 -23 -49 1 -41 28 9 26 -20 -4 -89 -16 -35 -34
-60 -52 -69 -20 -11 -28 -23 -29 -42 0 -22 -8 -32 -38 -48 -37 -19 -56 -42
-44 -53 3 -4 22 6 41 21 20 15 36 23 36 19 0 -27 -140 -194 -162 -194 -18 0
-6 28 27 60 31 30 35 40 35 87 0 51 16 115 46 180 8 17 14 34 14 37 0 3 9 25
19 49 27 57 51 156 51 203 -1 38 -1 37 -20 -21 -10 -33 -28 -96 -40 -140 -12
-43 -31 -97 -41 -118 -17 -32 -23 -36 -35 -27 -8 7 -14 20 -14 29 -1 9 -7 1
-15 -18 -8 -18 -13 -37 -10 -41 11 -18 -15 -60 -36 -60 -20 0 -21 4 -16 52 5
48 31 123 73 216 47 102 58 156 58 277 -1 99 -5 136 -27 210 -14 50 -29 110
-33 133 -7 44 -23 57 -25 20 0 -13 -2 -34 -4 -48 -2 -14 -4 -74 -5 -135 -3
-147 -30 -327 -62 -410 -20 -51 -48 -56 -48 -8 0 14 -11 38 -25 54 -21 25 -23
34 -13 57 16 41 27 92 19 92 -11 0 -39 -92 -46 -153 -7 -55 -9 -58 -31 -53
-20 5 -23 3 -23 -21 1 -16 -7 -57 -16 -93 -9 -36 -19 -75 -22 -88 -3 -12 -9
-25 -14 -28 -5 -3 -9 -12 -9 -20 0 -23 -139 -297 -159 -314 -3 -3 -22 -27 -41
-55 -72 -104 -376 -382 -395 -363 -10 9 68 89 174 178 100 84 134 120 112 120
-5 0 -14 -7 -21 -15 -26 -31 -29 -13 -5 25 26 41 33 66 15 55 -5 -3 -53 -58
-106 -121 -122 -146 -237 -246 -429 -374 -62 -42 -83 -58 -117 -89 -21 -19
-38 -40 -38 -48 0 -8 -8 -26 -17 -40 l-17 -26 29 7 c16 4 34 8 39 9 5 1 10
-13 12 -31 1 -29 -3 -35 -37 -52 -21 -11 -43 -20 -49 -20 -19 0 -10 16 20 34
34 20 31 42 -3 23 -12 -6 -24 -14 -27 -17 -25 -25 -330 -173 -383 -186 -22 -5
-26 -3 -21 10 3 9 10 16 15 16 5 0 9 5 9 10 0 30 -65 -16 -118 -83 -18 -24
-35 -21 -29 4 5 18 2 20 -16 14 -12 -3 -26 -7 -32 -8 -5 -2 -20 -9 -33 -15
-25 -14 -42 -9 -42 14 0 19 -13 18 -52 -4 -92 -50 -192 -68 -205 -36 -3 9 -2
19 4 23 12 8 25 41 15 41 -4 0 -24 -5 -46 -11 -21 -6 -111 -11 -201 -12 -101
-1 -167 -6 -176 -13 -23 -18 -127 -47 -145 -40 -10 4 -14 13 -11 26 7 29 -5
32 -39 9 -38 -25 -61 -24 -69 2 -5 15 -10 17 -20 9 -7 -6 -35 -13 -63 -17 -45
-5 -55 -2 -96 27 -40 27 -49 30 -63 18 -19 -15 -138 -15 -157 1 -17 14 -70 9
-91 -9 -30 -25 5 -43 113 -57 23 -3 42 -10 42 -17 0 -8 -33 -10 -112 -9 -111
3 -144 -4 -176 -34 -7 -7 -9 -13 -3 -13 5 0 13 5 16 10 7 11 88 14 98 4 9 -10
-4 -34 -19 -34 -8 0 -14 -6 -14 -14 0 -13 49 -24 150 -32 25 -2 56 -7 70 -10
14 -4 30 -6 37 -5 6 1 45 -8 87 -19 42 -11 87 -20 100 -20 14 0 28 -5 32 -11
5 -9 -25 -10 -112 -5 -214 12 -259 16 -284 22 -14 3 -41 8 -60 9 -55 5 -192
32 -220 42 -8 4 -19 5 -24 4 -6 -1 -19 2 -30 7 -12 6 -37 16 -56 23 -19 7 -37
15 -40 18 -3 3 -21 15 -40 25 -19 11 -70 39 -114 62 -43 24 -88 46 -100 50
-24 7 -65 24 -151 64 -33 15 -71 31 -85 35 -14 4 -27 11 -30 14 -3 4 -23 15
-45 25 -71 32 -174 107 -216 157 -46 55 -42 60 22 26 46 -25 99 -41 99 -32 0
4 -13 18 -30 32 -29 24 -45 57 -17 36 6 -6 22 -13 35 -16 40 -9 22 22 -28 50
-56 31 -87 59 -93 84 -8 31 14 22 88 -35 39 -30 90 -70 114 -88 23 -18 48 -38
55 -43 21 -20 84 -45 110 -45 14 0 47 -15 73 -34 45 -31 158 -75 168 -64 2 2
-42 28 -98 57 -114 60 -182 105 -244 165 -52 48 -56 71 -13 63 26 -6 48 1 89
27 21 13 -115 146 -150 146 -20 0 -33 9 -48 33 -24 40 -54 66 -115 102 -63 37
-131 125 -97 125 6 0 12 -4 16 -9 6 -10 55 -45 150 -107 28 -18 55 -37 60 -41
22 -18 199 -108 345 -176 176 -82 357 -171 383 -189 36 -26 35 -42 -3 -35 -63
13 -26 -9 63 -37 50 -16 96 -33 102 -37 5 -5 15 -9 23 -9 8 0 30 -7 50 -16 21
-9 48 -21 62 -26 14 -6 32 -14 40 -18 9 -4 31 -11 50 -15 19 -4 41 -11 50 -15
8 -5 44 -16 80 -25 36 -9 75 -21 88 -26 13 -5 37 -9 53 -9 17 0 38 -4 47 -9
48 -25 632 -28 702 -4 8 3 38 9 65 13 129 23 171 32 187 40 10 6 27 10 37 10
11 0 22 4 26 9 3 5 19 13 37 16 31 7 110 47 138 70 8 7 30 18 48 26 36 16 44
35 10 24 -98 -29 -215 -54 -223 -47 -2 3 -10 0 -17 -5 -7 -6 -31 -13 -53 -16
-22 -3 -60 -10 -85 -17 -25 -6 -52 -12 -60 -14 -19 -3 -50 -15 -72 -27 -10 -5
-23 -9 -30 -9 -7 0 -26 -7 -42 -15 -27 -14 -31 -14 -38 0 -5 8 -19 15 -31 14
-12 0 -16 -3 -9 -6 35 -14 0 -22 -110 -25 -68 -2 -132 -7 -142 -12 -17 -8 -19
-6 -13 20 l6 29 -127 0 c-120 0 -183 9 -307 45 -79 23 -181 39 -249 39 l-68 1
5 29 6 30 -39 -21 c-37 -20 -70 -19 -70 2 0 5 12 10 28 10 18 0 -48 38 -200
114 -125 63 -241 124 -257 135 -16 12 -32 21 -36 21 -14 0 -273 167 -330 212
-240 190 -294 240 -412 375 -39 46 -93 115 -119 155 -27 40 -52 75 -56 76 -5
2 -8 8 -8 13 0 5 -11 28 -26 50 -70 111 -174 321 -174 351 0 8 -4 18 -9 23 -8
9 -47 119 -71 200 -11 39 -35 152 -50 238 -13 74 -17 426 -5 470 5 17 3 27 -4
27 -6 0 -11 -7 -11 -15 0 -8 -4 -15 -10 -15 -15 0 -12 98 5 163 8 32 15 86 15
121 0 46 7 76 25 114 14 29 25 57 25 64 0 6 4 25 10 42 5 17 16 64 25 104 18
79 54 155 98 205 16 18 40 57 54 87 47 105 190 362 212 380 3 3 19 25 35 50
217 338 836 900 991 900 22 0 25 -3 20 -20 -3 -11 -5 -20 -2 -20 10 0 100 50
117 65 30 27 24 39 -7 17 -16 -10 -39 -22 -53 -25 -28 -7 -56 6 -46 21 5 9
243 129 301 153 11 4 42 18 70 30 27 12 77 30 110 41 33 10 69 23 80 27 37 16
80 30 120 40 22 6 60 15 85 21 25 7 54 14 65 16 11 2 43 8 70 14 70 15 160 30
230 37 78 9 563 9 640 0 116 -13 223 -30 320 -52 11 -2 39 -7 63 -11 42 -7 52
-20 30 -42 -15 -15 -5 -24 50 -45 44 -17 123 -24 107 -9 -6 5 -36 20 -67 33
-57 24 -79 47 -35 36 12 -3 45 -11 72 -17 59 -13 112 -28 140 -39 11 -5 33
-12 50 -17 22 -7 31 -17 35 -38 4 -25 13 -31 57 -45 28 -9 55 -20 59 -24 4 -4
14 -7 21 -7 13 0 96 -36 186 -81 42 -21 57 -24 57 -11 0 9 -109 62 -128 62 -7
0 -12 5 -12 10 0 6 3 10 8 10 17 0 91 -30 126 -51 20 -12 40 -19 43 -15 9 9
-3 19 -62 51 -89 50 -100 55 -115 55 -9 0 -20 4 -25 9 -15 13 -65 23 -65 12 0
-12 54 -51 71 -51 7 0 9 -3 6 -6 -14 -15 -217 74 -217 94 0 9 7 11 23 7 19 -6
20 -5 7 7 -8 8 -41 23 -72 32 -44 14 -58 22 -58 37 0 22 3 22 44 9 17 -5 58
-17 91 -26 33 -9 69 -20 80 -24 11 -5 36 -12 55 -16 32 -6 41 -10 90 -34 11
-5 25 -10 31 -10 10 0 24 -5 113 -45 21 -9 44 -18 50 -19 6 -1 33 -12 60 -24
27 -12 50 -22 53 -22 2 0 38 -16 79 -36 42 -20 78 -34 80 -31 7 7 -46 43 -76
52 -33 9 -100 55 -100 67 0 6 11 7 25 4 14 -3 36 -9 50 -12 14 -3 25 -2 25 4
0 5 -16 13 -36 17 -20 3 -44 10 -53 14 -21 11 -76 27 -121 36 -70 15 -156 63
-221 124 -45 43 -74 63 -99 67 -57 9 -98 24 -110 40 -16 18 -9 18 86 -6 115
-29 154 -42 204 -67 25 -13 50 -23 57 -23 7 0 28 -9 48 -20 19 -11 37 -20 40
-20 7 -1 37 -11 63 -21 12 -5 32 -13 45 -18 71 -29 197 -57 197 -44 -1 11
-235 125 -490 240 -30 13 -63 28 -72 34 -10 5 -22 9 -28 9 -5 0 -56 22 -112
49 -57 26 -118 54 -135 62 -18 8 -33 17 -33 22 0 4 8 4 18 -1 9 -5 53 -17 97
-27 44 -9 89 -21 100 -26 11 -4 36 -11 55 -15 19 -3 41 -10 50 -14 8 -4 56
-20 105 -36 50 -16 101 -34 115 -41 14 -7 29 -13 33 -13 5 0 21 -8 35 -19 71
-50 169 -93 222 -97 l55 -5 -36 20 c-47 26 -66 48 -51 63 14 14 -10 33 -92 73
-32 16 -77 48 -100 71 -26 26 -54 44 -76 48 -19 4 -53 20 -75 36 -105 78 -110
80 -226 103 -112 22 -196 57 -157 65 24 5 282 -64 328 -88 9 -4 30 -11 48 -14
17 -4 34 -12 37 -17 4 -5 12 -9 20 -9 14 0 102 -38 211 -91 33 -16 64 -29 70
-29 5 0 36 -14 69 -30 33 -16 65 -30 72 -30 7 0 27 -8 46 -19 18 -10 49 -22
68 -26 19 -4 39 -11 44 -15 17 -12 55 -19 55 -9 0 5 -6 9 -14 9 -15 0 -31 18
-24 26 11 10 149 -62 237 -124 21 -14 23 -14 15 -1 -18 31 -117 109 -191 150
-108 61 -204 125 -253 169 -52 47 -46 57 10 20 37 -24 161 -86 190 -94 l25 -8
-23 17 c-71 52 -351 212 -502 287 -96 48 -184 94 -195 103 -19 15 -18 16 25
11 25 -2 52 -6 60 -9 8 -2 30 -8 48 -12 18 -4 35 -12 38 -16 3 -5 13 -9 22 -9
23 -1 454 -218 460 -232 5 -10 22 -10 22 0 0 4 -30 26 -67 47 -37 22 -75 45
-84 50 -80 47 -175 95 -189 95 -5 0 -10 5 -10 10 0 6 -5 10 -11 10 -6 0 -44
16 -85 35 -40 19 -76 35 -80 35 -3 0 -21 7 -40 15 -19 8 -49 22 -68 30 -19 8
-38 15 -43 15 -5 0 -28 9 -51 20 -22 11 -46 20 -53 20 -6 0 -25 6 -42 14 -18
8 -68 27 -112 42 -44 15 -88 32 -98 39 -17 12 -16 13 5 19 23 6 23 6 -7 31
-16 13 -45 27 -63 31 -18 3 -35 10 -38 15 -3 5 -38 9 -78 9 -64 0 -75 3 -96
25 -19 20 -33 25 -71 25 -42 0 -78 11 -194 61 -11 4 -31 10 -45 13 -14 2 7 2
45 -1 39 -3 90 -9 115 -15 25 -5 72 -13 105 -18 96 -14 171 -29 233 -46 56
-16 117 -30 157 -38 11 -2 36 -7 55 -11 l35 -7 -37 19 c-20 11 -57 26 -82 33
-74 20 -69 34 10 26 68 -7 122 -20 156 -37 10 -5 24 -9 33 -9 14 0 93 -24 130
-39 11 -5 43 -17 70 -26 28 -9 73 -28 101 -41 28 -13 56 -24 62 -24 5 0 27 -9
49 -19 21 -11 65 -32 98 -47 33 -14 148 -70 255 -123 249 -123 235 -117 208
-81 -33 45 -119 101 -262 170 -97 48 -144 77 -191 122 -60 55 -65 58 -102 53
-22 -4 -55 -1 -78 7 -33 11 -40 18 -39 38 1 28 -11 40 -42 40 -21 0 -52 26
-42 35 3 3 18 -1 34 -9 16 -8 89 -40 162 -70 217 -89 380 -189 499 -304 24
-23 58 -45 76 -50 53 -15 207 -120 273 -188 58 -58 104 -87 104 -66 0 11 -177
182 -239 232 -24 19 -58 46 -75 60 -17 14 -53 41 -81 60 -27 18 -52 37 -55 40
-3 3 -63 45 -135 92 -170 114 -257 174 -328 226 -49 37 -60 41 -78 31 -26 -14
-68 2 -124 47 -34 27 -50 32 -110 36 -61 4 -88 13 -189 63 -105 52 -124 58
-186 60 -71 2 -96 13 -109 47 -5 15 -21 19 -88 22 -45 2 -87 7 -95 12 -7 5
-19 9 -26 10 -8 2 -21 6 -30 10 -24 11 -41 14 -100 20 -47 5 -51 4 -45 -12 6
-15 2 -16 -28 -10 -40 9 -54 10 -259 24 -169 12 -411 13 -615 2z m660 -320
c80 -3 -3 -20 -104 -22 -103 -2 -165 7 -155 23 4 6 48 8 113 5 58 -2 124 -5
146 -6z m672 -226 c-3 -3 -12 -4 -19 -1 -8 3 -5 6 6 6 11 1 17 -2 13 -5z
m-1064 -6451 c25 -15 -10 -19 -150 -16 -146 3 -156 2 -125 -11 17 -8 32 -18
32 -22 0 -3 -15 -3 -32 1 -18 3 -55 9 -83 11 -82 9 -86 20 -9 33 38 6 85 13
104 15 42 4 252 -4 263 -11z"/>
<path d="M1541 7149 c-23 -25 -27 -39 -11 -39 12 0 45 49 37 56 -3 3 -14 -5
-26 -17z"/>
<path d="M1441 7061 c-17 -13 -22 -24 -17 -37 7 -17 10 -16 32 11 37 47 30 60
-15 26z"/>
<path d="M4619 7056 c-3 -3 -54 -10 -114 -17 -61 -6 -123 -13 -140 -15 -36 -4
-125 -20 -180 -33 -22 -5 -65 -14 -95 -21 -30 -6 -66 -15 -80 -20 -14 -4 -52
-16 -85 -25 -61 -17 -103 -30 -140 -45 -11 -4 -40 -15 -65 -25 -25 -10 -69
-28 -98 -41 -29 -13 -56 -24 -61 -24 -11 0 -200 -99 -241 -126 -19 -13 -38
-24 -42 -24 -30 0 -323 -228 -423 -329 -74 -75 -82 -81 -121 -81 -49 0 -68
-18 -60 -57 5 -25 -5 -40 -96 -139 -185 -199 -236 -262 -309 -386 -28 -48 -27
-68 1 -27 38 54 127 171 185 242 93 115 109 132 284 307 254 253 461 404 761
555 52 27 176 82 210 95 19 6 44 16 55 20 11 5 47 16 80 26 33 9 65 21 70 25
6 4 33 10 60 14 28 4 55 11 60 15 6 4 24 10 40 13 17 3 52 10 78 16 27 6 65
13 85 16 21 3 66 10 102 15 204 30 564 36 697 11 33 -6 40 -5 36 6 -3 7 -18
13 -34 13 -27 0 -34 8 -30 38 2 9 -43 12 -192 12 -106 0 -196 -2 -198 -4z"/>
<path d="M5096 7042 c-4 -7 6 -13 89 -47 78 -33 241 -72 252 -61 4 3 -3 6 -15
6 -11 0 -24 5 -27 10 -3 6 -15 10 -25 10 -22 0 -92 30 -102 44 -3 5 -28 10
-55 11 -26 0 -62 9 -80 18 -17 9 -34 13 -37 9z"/>
<path d="M1353 6962 c-6 -4 -15 -20 -19 -36 -9 -38 14 -31 39 12 19 32 10 43
-20 24z"/>
<path d="M6866 6832 c7 -4 13 -16 15 -27 3 -12 15 -22 37 -26 18 -4 56 -21 84
-38 55 -34 71 -36 35 -5 -31 29 -156 104 -170 104 -9 0 -9 -2 -1 -8z"/>
<path d="M6350 6680 c0 -13 11 -13 30 0 12 8 11 10 -7 10 -13 0 -23 -4 -23
-10z"/>
<path d="M6410 6667 c13 -14 111 -77 120 -77 5 0 10 -4 10 -10 0 -5 5 -10 10
-10 24 0 5 19 -57 55 -66 39 -93 53 -83 42z"/>
<path d="M2969 6553 c-4 -8 -107 -94 -155 -128 -45 -32 -107 -86 -121 -103
-25 -34 -11 -31 42 8 30 22 58 40 64 40 5 0 11 3 13 8 2 4 29 29 61 55 60 51
114 114 104 123 -3 3 -7 2 -8 -3z"/>
<path d="M2163 5487 c-11 -12 -28 -40 -38 -62 -9 -22 -21 -48 -27 -58 -8 -17
-4 -37 6 -26 10 11 86 162 83 165 -2 2 -13 -6 -24 -19z"/>
<path d="M862 4770 c0 -19 2 -27 5 -17 2 9 2 25 0 35 -3 9 -5 1 -5 -18z"/>
<path d="M640 4616 c0 -25 5 -48 10 -51 6 -4 10 13 10 44 0 28 -4 51 -10 51
-5 0 -10 -20 -10 -44z"/>
<path d="M1690 4574 c-13 -33 -13 -34 5 -34 8 0 15 6 15 14 0 8 3 21 6 30 3 9
1 16 -5 16 -6 0 -16 -12 -21 -26z"/>
<path d="M647 4473 c-4 -3 -7 -13 -7 -21 0 -12 3 -12 15 -2 8 7 15 16 15 21 0
11 -14 12 -23 2z"/>
<path d="M597 4373 c-5 -9 10 -53 18 -53 3 0 5 14 5 30 0 28 -13 40 -23 23z"/>
<path d="M646 4302 c-8 -24 -3 -37 12 -31 4 2 5 15 2 29 l-6 25 -8 -23z"/>
<path d="M628 4180 c-3 -17 -1 -33 4 -36 4 -3 8 11 8 30 0 44 -6 47 -12 6z"/>
<path d="M7059 4052 c7 -13 10 -35 6 -49 -4 -16 -2 -22 5 -18 16 10 12 61 -7
76 -15 13 -15 12 -4 -9z"/>
<path d="M7190 3765 c0 -19 5 -35 10 -35 6 0 10 16 10 35 0 19 -4 35 -10 35
-5 0 -10 -16 -10 -35z"/>
<path d="M6841 3691 c-18 -80 -8 -101 13 -29 11 35 14 63 9 73 -6 11 -13 -2
-22 -44z"/>
<path d="M6756 3555 c-18 -27 -21 -45 -7 -45 8 0 41 54 41 67 0 12 -20 -1 -34
-22z"/>
<path d="M6690 3370 c0 -12 -11 -46 -25 -75 -13 -30 -27 -67 -31 -82 -6 -27
-5 -27 9 -8 42 57 76 168 56 181 -5 3 -9 -4 -9 -16z"/>
<path d="M1030 2573 c0 -11 -11 -26 -25 -33 -14 -7 -25 -20 -25 -29 0 -51 139
-271 171 -271 7 0 45 -31 147 -122 38 -34 122 -78 148 -78 14 0 9 10 -22 43
-44 46 -82 97 -103 140 -8 15 -18 27 -22 27 -16 0 -73 71 -154 191 -94 140
-115 164 -115 132z"/>
<path d="M1200 2540 c0 -31 154 -242 227 -311 61 -58 114 -101 119 -96 2 2
-10 28 -26 59 -26 47 -33 55 -54 51 -16 -3 -31 2 -45 16 -25 25 -20 41 12 41
l21 0 -21 15 c-12 8 -53 57 -91 108 -60 79 -82 100 -134 125 -5 2 -8 -2 -8 -8z"/>
<path d="M1440 2381 c0 -12 5 -21 10 -21 6 0 10 6 10 14 0 8 -4 18 -10 21 -5
3 -10 -3 -10 -14z"/>
<path d="M1570 2367 c0 -10 119 -150 133 -156 18 -7 -12 36 -72 99 -33 36 -60
61 -61 57z"/>
<path d="M920 2283 c0 -10 52 -63 62 -63 19 0 6 30 -21 49 -31 22 -41 26 -41
14z"/>
<path d="M1047 2254 c-8 -8 89 -120 110 -128 26 -10 24 -2 -13 50 -46 65 -81
93 -97 78z"/>
<path d="M1590 2198 c90 -114 199 -216 299 -283 57 -37 105 -64 109 -60 4 4
-2 13 -13 21 -96 68 -275 225 -375 328 -60 62 -71 58 -20 -6z"/>
<path d="M2710 2204 c0 -10 44 -43 58 -44 22 0 13 19 -18 35 -31 16 -40 18
-40 9z"/>
<path d="M2927 2104 c-8 -8 58 -71 80 -76 13 -4 27 0 33 7 9 11 4 18 -22 32
-52 28 -86 42 -91 37z"/>
<path d="M5290 2074 c-19 -7 -43 -13 -52 -13 -10 -1 -18 -6 -18 -11 0 -7 22
-10 58 -8 50 3 57 6 60 26 4 25 1 25 -48 6z"/>
<path d="M1699 2007 c7 -9 11 -23 8 -31 -7 -17 18 -40 33 -31 17 10 12 52 -7
59 -10 3 -25 9 -33 13 -13 5 -13 4 -1 -10z"/>
<path d="M3132 1988 c5 -15 48 -18 48 -3 0 6 -11 11 -26 13 -18 3 -25 0 -22
-10z"/>
<path d="M1559 1933 c20 -37 240 -242 331 -309 114 -84 246 -162 256 -151 3 2
-28 24 -68 47 -156 92 -339 242 -410 336 -49 64 -82 94 -106 94 -9 0 -10 -5
-3 -17z"/>
<path d="M2180 1880 c0 -5 9 -10 21 -10 11 0 17 5 14 10 -3 6 -13 10 -21 10
-8 0 -14 -4 -14 -10z"/>
<path d="M3380 1880 c0 -5 11 -10 25 -10 14 0 25 5 25 10 0 6 -11 10 -25 10
-14 0 -25 -4 -25 -10z"/>
<path d="M3200 1675 c0 -10 10 -15 34 -15 41 0 56 15 23 24 -37 10 -57 7 -57
-9z"/>
<path d="M2634 1171 c13 -14 23 -18 30 -11 12 12 8 15 -24 25 -25 8 -25 8 -6
-14z"/>
<path d="M3190 1183 c0 -4 15 -14 33 -21 17 -8 41 -17 52 -22 45 -19 63 -23
120 -27 68 -6 69 5 1 18 -25 5 -64 17 -86 28 -46 22 -120 37 -120 24z"/>
<path d="M2748 1110 c18 -16 44 -30 57 -30 26 0 99 -22 155 -47 80 -35 187
-88 210 -104 31 -21 90 -32 153 -30 34 2 59 -4 85 -19 26 -16 57 -23 107 -25
38 -2 86 -6 105 -9 33 -4 50 -8 160 -36 76 -20 92 -22 195 -25 81 -3 90 -2 46
5 -60 9 -85 25 -61 40 8 5 12 12 9 15 -4 3 -75 12 -160 20 -85 8 -179 20 -209
25 -30 6 -68 12 -85 15 -46 7 -177 36 -205 45 -28 9 -77 22 -100 25 -8 2 -44
13 -80 25 -36 12 -69 23 -75 24 -20 5 -60 17 -80 26 -11 4 -42 16 -70 25 -27
10 -73 29 -102 42 -75 33 -96 31 -55 -7z"/>
<path d="M4870 1120 c-8 -5 -25 -10 -37 -10 -13 0 -23 -4 -23 -10 0 -6 19 -7
48 -4 56 7 122 23 122 29 0 9 -95 5 -110 -5z"/>
<path d="M3810 1022 c0 -12 190 -30 197 -19 3 5 0 12 -6 16 -17 11 -191 13
-191 3z"/>
<path d="M4448 983 c7 -3 16 -2 19 1 4 3 -2 6 -13 5 -11 0 -14 -3 -6 -6z"/>
<path d="M4523 983 c-24 -2 -43 -8 -43 -14 0 -15 70 -10 86 6 9 8 12 14 7 13
-4 -1 -27 -3 -50 -5z"/>
<path d="M5063 983 c9 -2 25 -2 35 0 9 3 1 5 -18 5 -19 0 -27 -2 -17 -5z"/>
<path d="M4865 967 c-126 -17 -201 -31 -230 -44 -30 -14 -29 -14 15 -8 25 4
86 11 135 17 50 6 101 12 115 14 14 2 46 7 73 10 26 4 50 10 52 15 6 9 -76 7
-160 -4z"/>
<path d="M4048 813 c6 -2 18 -2 25 0 6 3 1 5 -13 5 -14 0 -19 -2 -12 -5z"/>
<path d="M4265 800 c-11 -18 184 -17 215 0 9 6 -26 10 -97 10 -64 0 -114 -4
-118 -10z"/>
<path d="M3502 658 c3 -7 20 -14 39 -16 19 -1 41 -6 49 -9 8 -3 42 -6 74 -7
64 -1 82 -16 47 -38 -12 -7 -21 -16 -21 -20 0 -5 51 -8 113 -7 105 0 111 1 90
16 -28 19 -31 55 -5 52 30 -3 35 1 22 16 -7 8 -16 13 -20 10 -5 -3 -11 -1 -15
5 -10 16 -158 12 -191 -5 -37 -19 -74 -19 -110 0 -36 18 -77 20 -72 3z"/>
</g>
</svg>
